<svg xmlns="http://www.w3.org/2000/svg" width="160" height="96" viewBox="0 0 80 48" aria-hidden="true" fill="none" stroke="#64748b" stroke-width="1.4" stroke-linecap="round" stroke-linejoin="round"><rect x="26" y="2" width="28" height="9" rx="2" fill="#64748b" stroke="#64748b"></rect><path d="M40 11v5M16 16h48M16 16v5M40 16v5M64 16v5"></path><rect x="6" y="21" width="20" height="8" rx="2" fill="#e2e8f0"></rect><rect x="30" y="21" width="20" height="8" rx="2" fill="#e2e8f0"></rect><rect x="54" y="21" width="20" height="8" rx="2" fill="#e2e8f0"></rect><path d="M16 29v5M40 29v5M64 29v5M10 34h12M34 34h12M58 34h12"></path><rect x="4" y="38" width="12" height="7" rx="2"></rect><rect x="18" y="38" width="12" height="7" rx="2"></rect><rect x="34" y="38" width="12" height="7" rx="2"></rect><rect x="58" y="38" width="12" height="7" rx="2"></rect></svg>
